<svg enable-background="new 0 0 512 512" viewBox="0 0 512 512" xmlns="http://www.w3.org/2000/svg"><g style="fill:none;stroke:#000;stroke-width:12;stroke-linecap:round;stroke-linejoin:round;stroke-miterlimit:10"><path d="m163.9 97.5c1.5-14.8 10.6-25 25.2-28.2.5-.1.9-.4 1.3-.6h190c6.9 1.9 13.4 4.5 18.4 10 6.1 6.7 8.3 14.6 8.3 23.4v172.4c0 28.1.1 56.2 0 84.3 0 15.8-9 27.5-23.9 31.3-2.5.6-5.3.8-7.9.7"/><path d="m109.1 136.4c4-7.1 10.6-12.1 19.5-14.4 2.9-.8 6-1 9.1-1 59.3-.1 118.5-.1 177.8 0 16 0 27.5 8.3 31.6 23 1 3.5 1.2 7.3 1.2 10.9 0 17.3 0 34.7.1 52"/><path d="m347.9 226.9v1"/><path d="m348.3 248.9v33.4 128.2c0 15.9-8.4 27.6-23 31.6-3.1.9-6.5 1.2-9.8 1.2-59.3.1-118.5.1-177.8 0-19.7 0-32.8-13.1-32.8-32.7 0-28.2 0-56.5 0-84.7"/><path d="m104.9 306.9c0-44.7 0-89.3 0-134"/></g></svg>